# xmcd
#
# Track frame offsets: 
#        150
#        12028
#        21952
#        33961
#        43280
#        52891
#        65935
#        76400
#        90037
#        101375
#        112517
#        122438
#        133922
#        145000
#        155577
#        165134
#        176781
#        189198
#        200972
#        210033
#        223756
#        235838
#        250553
#        263718
#        276782
#        289137
#        299762
#        311890
#
# Disc length: 4307 seconds
#
# Revision: 0
# Processed by: cddbd v1.5.2PL0 Copyright (c) Steve Scherf et al.
# Submitted via: ExactAudioCopy v1.3
#
DISCID=8610d11c
DTITLE=Jimmy Wakely - The Jimmy Wakely Collection 1940-53_CD2
DYEAR=2019
DGENRE=Country
TTITLE0=Tellin・My Troubles To My Old Guitar
TTITLE1=Margaret Whiting and Jimmy Wakely - Slipping Around
TTITLE2=Margaret Whiting and Jimmy Wakely - Wedding Bells
TTITLE3=Margaret Whiting and Jimmy Wakely - I'll Never Slip Around Again
TTITLE4=Margaret Whiting and Jimmy Wakely - Six Times A Week And Twice O
TTITLE4=n Sunday
TTITLE5=You're Only In My Arms 
TTITLE6=I Don稚 Know Why I Love You (But I Do Do Do)
TTITLE7=The Touch Of God's Hand
TTITLE8=Margaret Whiting and Jimmy Wakely - Broken Down Merry - Go - Rou
TTITLE8=nd
TTITLE9=Margaret Whiting and Jimmy Wakely - The Gods Were Angry With Me
TTITLE10=Peter Cottontail
TTITLE11=Mr Easter Bunny
TTITLE12=Margaret Whiting and Jimmy Wakely - Let's Go To Church (Next Su
TTITLE12=nday Morning)
TTITLE13=Margaret Whiting and Jimmy Wakely - Why Do You Say Those Things
TTITLE13=(That Hurt Me So)?
TTITLE14=Home Town Ra
TTITLE15=Margaret Whiting and Jimmy Wakely - Fools Paradise
TTITLE16=Mona Lisa
TTITLE17=Steppin' Out
TTITLE18=Margaret Whiting and Jimmy Wakely - A Bushel And A Peck
TTITLE19=Margaret Whiting and Jimmy Wakely - Beyond The Reef
TTITLE20=Bandera Waltz 
TTITLE21=Pot Of Gold 
TTITLE22=Margaret Whiting and Jimmy Wakely - Silver Bells
TTITLE23=My Heart Cries For You 
TTITLE24=Music By The Angels
TTITLE25=Margaret Whiting and Jimmy Wakely - Easter Parade
TTITLE26=At The Close Of A Long, Long Day
TTITLE27=Beautiful Brown Eyes 
EXTD=
EXTT0=
EXTT1=
EXTT2=
EXTT3=
EXTT4=
EXTT5=
EXTT6=
EXTT7=
EXTT8=
EXTT9=
EXTT10=
EXTT11=
EXTT12=
EXTT13=
EXTT14=
EXTT15=
EXTT16=
EXTT17=
EXTT18=
EXTT19=
EXTT20=
EXTT21=
EXTT22=
EXTT23=
EXTT24=
EXTT25=
EXTT26=
EXTT27=
PLAYORDER=
